<svg width="115" height="23" fill="none" xmlns="http://www.w3.org/2000/svg"><path d="M6.099 18.19c-1.127 0-2.096-.171-2.907-.513-.81-.342-1.425-.792-1.843-1.349-.418-.557-.64-1.159-.665-1.805a.387.387 0 01.399-.399h1.691c.152 0 .266.032.342.095.089.05.171.14.247.266.127.43.418.792.874 1.083.456.291 1.077.437 1.862.437.9 0 1.577-.146 2.033-.437.456-.304.684-.722.684-1.254 0-.355-.12-.646-.361-.874-.228-.228-.576-.424-1.045-.589-.456-.165-1.14-.367-2.052-.608-1.495-.355-2.59-.823-3.287-1.406-.684-.595-1.026-1.438-1.026-2.527 0-.735.196-1.387.589-1.957.405-.57.982-1.02 1.729-1.349.76-.33 1.64-.494 2.641-.494 1.039 0 1.938.184 2.698.551.76.367 1.336.83 1.729 1.387.405.545.62 1.09.646 1.634a.387.387 0 01-.399.399H8.911c-.266 0-.45-.12-.551-.361-.076-.405-.33-.741-.76-1.007-.43-.279-.963-.418-1.596-.418-.71 0-1.267.133-1.672.399s-.608.652-.608 1.159c0 .355.101.646.304.874.203.228.52.43.95.608.443.177 1.077.374 1.9.589 1.115.253 2.001.538 2.66.855.671.317 1.165.716 1.482 1.197.317.481.475 1.096.475 1.843 0 .81-.228 1.52-.684 2.128-.443.595-1.077 1.051-1.9 1.368-.81.317-1.748.475-2.812.475zm8.542-11.704a.44.44 0 01-.323-.133.44.44 0 01-.133-.323V4.662a.44.44 0 01.133-.323.44.44 0 01.323-.133h1.73a.44.44 0 01.322.133.414.414 0 01.152.323V6.03a.44.44 0 01-.133.323.463.463 0 01-.342.133h-1.729zM14.717 18a.44.44 0 01-.323-.133.44.44 0 01-.133-.323V8.576a.44.44 0 01.133-.323.44.44 0 01.323-.133h1.577a.4.4 0 01.323.133.402.402 0 01.133.323v8.968a.44.44 0 01-.133.323.402.402 0 01-.323.133h-1.577zm5.827 0a.44.44 0 01-.323-.133.44.44 0 01-.133-.323V8.576a.44.44 0 01.133-.323.44.44 0 01.323-.133h1.482a.44.44 0 01.323.133.44.44 0 01.133.323v.646c.659-.861 1.577-1.292 2.755-1.292 1.406 0 2.388.564 2.945 1.691a3.326 3.326 0 011.292-1.216 3.593 3.593 0 011.805-.475c1.039 0 1.887.355 2.546 1.064.659.71.988 1.742.988 3.097v5.453a.44.44 0 01-.133.323.402.402 0 01-.323.133H32.8a.44.44 0 01-.323-.133.44.44 0 01-.133-.323v-5.301c0-.798-.17-1.374-.513-1.729-.33-.367-.772-.551-1.33-.551a1.71 1.71 0 00-1.273.551c-.342.367-.513.944-.513 1.729v5.301a.44.44 0 01-.133.323.44.44 0 01-.323.133H26.7a.44.44 0 01-.323-.133.44.44 0 01-.133-.323v-5.301c0-.798-.177-1.374-.532-1.729-.342-.367-.779-.551-1.31-.551a1.73 1.73 0 00-1.293.551c-.342.367-.513.944-.513 1.729v5.301a.44.44 0 01-.133.323.44.44 0 01-.323.133h-1.596zm17.98 3.61a.44.44 0 01-.322-.133.403.403 0 01-.133-.323V8.576a.4.4 0 01.133-.323.44.44 0 01.323-.133h1.5c.14 0 .248.044.324.133a.402.402 0 01.133.323v.76c.71-.937 1.722-1.406 3.04-1.406 1.28 0 2.26.405 2.945 1.216.684.798 1.051 1.881 1.102 3.249.012.152.019.374.019.665 0 .304-.007.532-.02.684-.05 1.33-.417 2.407-1.101 3.23-.684.81-1.666 1.216-2.945 1.216-1.28 0-2.255-.45-2.926-1.349v4.313c0 .14-.045.247-.133.323a.402.402 0 01-.323.133h-1.615zm4.295-5.453c1.368 0 2.096-.842 2.185-2.527.012-.127.019-.317.019-.57 0-.253-.007-.443-.02-.57-.088-1.685-.816-2.527-2.184-2.527-.735 0-1.28.234-1.634.703-.355.469-.551 1.045-.59 1.729l-.018.722.019.741c.025.633.221 1.178.589 1.634.38.443.924.665 1.634.665zM51.013 18a.44.44 0 01-.323-.133.44.44 0 01-.133-.323V4.966a.4.4 0 01.133-.323.44.44 0 01.323-.133h1.577c.139 0 .247.044.323.133a.402.402 0 01.133.323v12.578a.44.44 0 01-.133.323.402.402 0 01-.323.133h-1.577zm9.626.19c-1.406 0-2.527-.405-3.363-1.216-.823-.823-1.26-1.976-1.311-3.458l-.02-.475.02-.475c.063-1.444.507-2.578 1.33-3.401.836-.823 1.95-1.235 3.344-1.235 1.495 0 2.647.456 3.458 1.368.823.912 1.235 2.128 1.235 3.648v.399a.44.44 0 01-.133.323.463.463 0 01-.342.133h-6.308v.152c.025.697.215 1.286.57 1.767.367.469.868.703 1.5.703.748 0 1.35-.291 1.806-.874.114-.14.203-.228.266-.266a.738.738 0 01.323-.057h1.634c.114 0 .209.038.285.114a.29.29 0 01.133.247c0 .304-.184.665-.551 1.083-.355.405-.868.76-1.54 1.064-.67.304-1.45.456-2.336.456zm2.109-5.985v-.057c0-.747-.19-1.349-.57-1.805-.367-.456-.88-.684-1.54-.684-.658 0-1.17.228-1.538.684-.367.456-.551 1.058-.551 1.805v.057h4.199z" fill="#FF6838"/><path d="M68.85 18a.44.44 0 01-.323-.133.44.44 0 01-.133-.323V5.175c0-.14.038-.253.114-.342a.463.463 0 01.342-.133h8.246c.14 0 .253.044.342.133a.463.463 0 01.133.342v1.33c0 .14-.045.253-.133.342a.507.507 0 01-.342.114h-6.1v3.61h5.72c.14 0 .253.044.342.133a.463.463 0 01.133.342v1.33c0 .14-.045.253-.133.342a.507.507 0 01-.342.114h-5.72v4.712c0 .14-.044.253-.132.342a.507.507 0 01-.342.114H68.85zm15.728.19c-1.482 0-2.628-.38-3.439-1.14-.81-.773-1.247-1.824-1.31-3.154l-.02-.836.02-.836c.063-1.317.506-2.362 1.33-3.135.823-.773 1.963-1.159 3.42-1.159 1.456 0 2.596.386 3.42 1.159.823.773 1.266 1.818 1.33 3.135.012.152.018.43.018.836 0 .405-.006.684-.019.836-.063 1.33-.5 2.381-1.31 3.154-.811.76-1.958 1.14-3.44 1.14zm0-1.881c.672 0 1.191-.209 1.558-.627.368-.43.57-1.058.608-1.881.013-.127.02-.374.02-.741s-.007-.614-.02-.741c-.038-.823-.24-1.444-.608-1.862-.367-.43-.886-.646-1.558-.646-.671 0-1.19.215-1.558.646-.367.418-.57 1.039-.608 1.862l-.019.741.02.741c.037.823.24 1.45.607 1.881.368.418.887.627 1.558.627zM96.64 18.19c-1.481 0-2.628-.38-3.438-1.14-.811-.773-1.248-1.824-1.311-3.154l-.02-.836.02-.836c.063-1.317.506-2.362 1.33-3.135.823-.773 1.963-1.159 3.42-1.159 1.456 0 2.596.386 3.419 1.159.824.773 1.267 1.818 1.33 3.135.013.152.019.43.019.836 0 .405-.006.684-.019.836-.063 1.33-.5 2.381-1.311 3.154-.81.76-1.957 1.14-3.439 1.14zm0-1.881c.672 0 1.191-.209 1.559-.627.367-.43.57-1.058.608-1.881a9.14 9.14 0 00.019-.741 9.14 9.14 0 00-.02-.741c-.038-.823-.24-1.444-.608-1.862-.367-.43-.886-.646-1.558-.646-.67 0-1.19.215-1.557.646-.368.418-.57 1.039-.608 1.862l-.02.741.02.741c.037.823.24 1.45.608 1.881.367.418.886.627 1.558.627zm11.359 1.881c-1.28 0-2.261-.412-2.945-1.235-.684-.823-1.052-1.919-1.102-3.287l-.019-.627.019-.608c.038-1.33.399-2.413 1.083-3.249.696-.836 1.684-1.254 2.964-1.254 1.228 0 2.204.418 2.926 1.254V4.966a.4.4 0 01.133-.323.438.438 0 01.323-.133h1.615c.139 0 .247.044.323.133a.404.404 0 01.133.323v12.578a.442.442 0 01-.133.323.403.403 0 01-.323.133h-1.501a.438.438 0 01-.323-.133.438.438 0 01-.133-.323v-.703c-.722.9-1.736 1.349-3.04 1.349zm.703-2.033c.734 0 1.279-.234 1.634-.703.354-.469.551-1.045.589-1.729.012-.152.019-.399.019-.741 0-.33-.007-.57-.019-.722-.026-.633-.228-1.172-.608-1.615-.368-.456-.906-.684-1.615-.684-1.368 0-2.097.842-2.185 2.527l-.019.57.019.57c.088 1.685.817 2.527 2.185 2.527z" fill="#363853"/></svg>